<svg xmlns="http://www.w3.org/2000/svg" viewBox="0 0 150.55 157.52"><defs><style>.cls-1{fill:blue;}.cls-2{fill:#fff;}</style></defs><title>Asset 1</title><g id="Layer_2" data-name="Layer 2"><g id="Layer_1-2" data-name="Layer 1"><path class="cls-1" d="M75.27,157.52l-2.46-.8c-3-1-72.81-24-72.81-69.72V0H53.35c9.12,0,16.49,1.85,21.92,5.51C80.71,1.85,88.08,0,97.2,0h53.35V87c0,45.72-69.84,68.76-72.81,69.72ZM3.22,3.22V87c0,43.4,67.69,65.73,70.57,66.66h0l1.48.48,1.48-.48c2.89-.93,70.58-23.26,70.58-66.66V3.22H97.2c-9,0-16,1.86-21,5.55l-1,.71-1-.71c-5-3.69-12-5.55-21-5.55Z"/><path class="cls-1" d="M28.91,77.49a13.41,13.41,0,0,0-2.17,5.9H48.45a13.35,13.35,0,0,0-2.16-5.9Z"/><rect class="cls-1" x="29.68" y="30.1" width="1.76" height="44.17"/><path class="cls-1" d="M66.12,35.26v-.08H84.47a13.34,13.34,0,0,0,1.66-5.08H64.42A13.43,13.43,0,0,0,66.12,35.26Z"/><rect class="cls-1" x="39.2" y="30.1" width="1" height="44.17"/><rect class="cls-1" x="34.66" y="30.1" width="1.33" height="44.17"/><path class="cls-1" d="M66.77,84.85A13.48,13.48,0,0,0,64.42,91H86.13a13.48,13.48,0,0,0-2.35-6.18Z"/><rect class="cls-1" x="67.36" y="38.4" width="1.93" height="43.24"/><rect class="cls-1" x="72.5" y="38.4" width="1.33" height="43.24"/><rect class="cls-1" x="81.26" y="38.4" width="1.93" height="43.24"/><rect class="cls-1" x="77.05" y="38.4" width="1" height="43.24"/><rect class="cls-1" x="110.92" y="30.1" width="1.33" height="44.17"/><rect class="cls-1" x="115.47" y="30.1" width="1" height="44.17"/><rect class="cls-1" x="105.78" y="30.1" width="1.93" height="44.17"/><rect class="cls-1" x="43.42" y="30.1" width="2.09" height="44.17"/><path class="cls-1" d="M104.17,26.89h19v0a13.37,13.37,0,0,0,1.33-4.46H102.84a13.37,13.37,0,0,0,1.33,4.46Z"/><rect class="cls-1" x="119.68" y="30.1" width="1.93" height="44.17"/><path class="cls-1" d="M122.38,77.49H105a13.35,13.35,0,0,0-2.16,5.9h21.71A13.37,13.37,0,0,0,122.38,77.49Z"/><path class="cls-1" d="M28.07,26.93v0h19v0a13.37,13.37,0,0,0,1.33-4.46H26.74A13.37,13.37,0,0,0,28.07,26.93Z"/><path class="cls-1" d="M97.2,8C84.53,8,79,12.14,76.74,14.87a1.9,1.9,0,0,1-2.93,0C71.54,12.14,66,8,53.35,8H8V87c0,40.38,67.23,62.07,67.23,62.07S142.51,127.38,142.51,87V8ZM61.11,92.63a16.69,16.69,0,0,1,3-9.63V38.13a16.69,16.69,0,0,1-3-9.63V26.89H89.44V28.5a16.63,16.63,0,0,1-3,9.63V83a16.63,16.63,0,0,1,3,9.63v1.61H61.11ZM23.43,85a16.64,16.64,0,0,1,3-9.64V30.5a16.68,16.68,0,0,1-3-9.64V19.25H51.76v1.61a16.67,16.67,0,0,1-3,9.64V75.36a16.63,16.63,0,0,1,3,9.64v1.6H23.43Zm17.92,16.54H41a1.33,1.33,0,0,0-.65.16.64.64,0,0,0-.32.35,3.82,3.82,0,0,0-.08,1v6.28a3.34,3.34,0,0,0,.09,1,.68.68,0,0,0,.3.31,1.41,1.41,0,0,0,.66.17h.34V111H37.19v-.27h.34a1,1,0,0,0,.87-.35,2.1,2.1,0,0,0,.18-1.11v-3H34.05v3a3.23,3.23,0,0,0,.1,1,.68.68,0,0,0,.3.31,1.37,1.37,0,0,0,.65.17h.36V111H31.28v-.27h.35a1,1,0,0,0,.87-.35,2.13,2.13,0,0,0,.17-1.11V103a3.43,3.43,0,0,0-.09-1,.66.66,0,0,0-.29-.31,1.41,1.41,0,0,0-.66-.17h-.35v-.27h4.18v.27H35.1a1.36,1.36,0,0,0-.65.16.66.66,0,0,0-.31.35,3.27,3.27,0,0,0-.09,1v2.78h4.53V103a3.43,3.43,0,0,0-.09-1,.68.68,0,0,0-.3-.31,1.41,1.41,0,0,0-.66-.17h-.34v-.27h4.16ZM45,110.75h.34a1.06,1.06,0,0,0,.88-.35,2.25,2.25,0,0,0,.17-1.11V103a3.34,3.34,0,0,0-.09-1,.68.68,0,0,0-.3-.31,1.41,1.41,0,0,0-.66-.17H45v-.27h4.17v.27h-.35a1,1,0,0,0-.87.35,2.1,2.1,0,0,0-.18,1.11v6.29a3.34,3.34,0,0,0,.09,1,.68.68,0,0,0,.3.31,1.41,1.41,0,0,0,.66.17h.35V111H45Zm12.62,7.08h-.37a1,1,0,0,0-.88.48,2.19,2.19,0,0,0-.15,1v4a7.11,7.11,0,0,1-.29,2.27A2.91,2.91,0,0,1,54.75,127a4.09,4.09,0,0,1-2.31.57A4.39,4.39,0,0,1,50,127a3,3,0,0,1-1.17-1.49,8.32,8.32,0,0,1-.23-2.4v-3.8a2,2,0,0,0-.24-1.18,1,1,0,0,0-.81-.28H47.2v-.27h4.21v.27H51a1,1,0,0,0-.86.38,2.12,2.12,0,0,0-.18,1.08v4.24a9.35,9.35,0,0,0,.11,1.3,2.88,2.88,0,0,0,.37,1.15,2.19,2.19,0,0,0,.79.67,2.67,2.67,0,0,0,1.26.27,3.44,3.44,0,0,0,1.71-.42,2.17,2.17,0,0,0,1-1.07,6,6,0,0,0,.28-2.2v-3.94a2.1,2.1,0,0,0-.2-1.15,1.06,1.06,0,0,0-.83-.31h-.37v-.27h3.45Zm.87-6.81-3.76-8.2v6.51a2,2,0,0,0,.19,1.12,1.08,1.08,0,0,0,.84.3h.35V111H52.69v-.27H53a1,1,0,0,0,.88-.37,2.29,2.29,0,0,0,.16-1V103a2.12,2.12,0,0,0-.15-.93.75.75,0,0,0-.37-.35,2,2,0,0,0-.86-.14v-.27h2.76L59,108.9l3.48-7.63h2.76v.27h-.34a1,1,0,0,0-.88.37,2.16,2.16,0,0,0-.16,1v6.37a2,2,0,0,0,.2,1.12,1.08,1.08,0,0,0,.84.3h.34V111H61.08v-.27h.34a1,1,0,0,0,.88-.37,2.16,2.16,0,0,0,.16-1v-6.51L58.7,111Zm12.68,6.81a1.56,1.56,0,0,0-.79.33,2.86,2.86,0,0,0-.67,1.08l-3.4,8.29H66l-3.65-8.4a4.55,4.55,0,0,0-.39-.79,1.24,1.24,0,0,0-.44-.35,2.07,2.07,0,0,0-.71-.16v-.27h4v.27a1.82,1.82,0,0,0-.88.23.53.53,0,0,0-.2.42,3.26,3.26,0,0,0,.33,1.12l2.48,5.71,2.3-5.64a3.66,3.66,0,0,0,.34-1.15.55.55,0,0,0-.21-.4,1.31,1.31,0,0,0-.7-.27l-.13,0v-.27h3Zm.51-6.81H68.59v-.27a1.61,1.61,0,0,0,.79-.28,4.6,4.6,0,0,0,.81-1.4l3.42-8h.26l3.39,8.11a3.61,3.61,0,0,0,.74,1.26,1.45,1.45,0,0,0,.93.33V111H75.09v-.27a1.41,1.41,0,0,0,.78-.19.51.51,0,0,0,.21-.41,3,3,0,0,0-.29-1l-.59-1.41H71.43l-.66,1.54a2.47,2.47,0,0,0-.24.85.49.49,0,0,0,.21.39,1.8,1.8,0,0,0,.91.22ZM82.07,127.3H74.56V127h.35a1.37,1.37,0,0,0,.65-.17.58.58,0,0,0,.31-.34,3.22,3.22,0,0,0,.08-.94v-6.33a2.21,2.21,0,0,0-.18-1.15,1.11,1.11,0,0,0-.86-.28h-.35v-.27h7.51l.11,2.14H81.9a3.08,3.08,0,0,0-.34-1.06,1.14,1.14,0,0,0-.54-.44,3.28,3.28,0,0,0-1-.11H77.33v3.85h2.15a1.74,1.74,0,0,0,1.11-.25,1.6,1.6,0,0,0,.42-1.16h.26v3.39H81a3.55,3.55,0,0,0-.21-.91.86.86,0,0,0-.42-.4,2.28,2.28,0,0,0-.9-.14H77.33v3.21a2.93,2.93,0,0,0,.06.79.47.47,0,0,0,.2.22,1.19,1.19,0,0,0,.55.08h1.65a4.84,4.84,0,0,0,1.2-.11,1.88,1.88,0,0,0,.72-.45,5.5,5.5,0,0,0,.91-1.35h.29ZM86.44,111H82.28v-.27h.35a1.07,1.07,0,0,0,.88-.35,2.25,2.25,0,0,0,.17-1.11V103a3.48,3.48,0,0,0-.09-1,.72.72,0,0,0-.3-.3,1.41,1.41,0,0,0-.66-.17h-.35v-.27h4.16v.27h-.33a1.4,1.4,0,0,0-.66.16.66.66,0,0,0-.31.35,3.67,3.67,0,0,0-.08,1v3c.09-.09.42-.4,1-.91a22.27,22.27,0,0,0,2.58-2.61,1,1,0,0,0,.2-.5.35.35,0,0,0-.16-.29.76.76,0,0,0-.51-.13h-.22v-.27h3.58v.27a1.7,1.7,0,0,0-.57.09,2.71,2.71,0,0,0-.64.3,6.82,6.82,0,0,0-.92.73l-1.46,1.47-1.48,1.48L90,109.18a6.46,6.46,0,0,0,1.51,1.21,3.29,3.29,0,0,0,1.25.36V111H88.15v-.27a1,1,0,0,0,.6-.14.38.38,0,0,0,.19-.31.62.62,0,0,0-.07-.31,3.24,3.24,0,0,0-.45-.51l-3.36-3.33v3.14a3.34,3.34,0,0,0,.09,1,.68.68,0,0,0,.3.31,1.41,1.41,0,0,0,.66.17h.33Zm9.7,16.28H93.53l-3.29-4.55h-1v2.83a1.94,1.94,0,0,0,.2,1.14,1,1,0,0,0,.82.32h.38v.26H86.44V127h.37a1,1,0,0,0,.88-.4,2.29,2.29,0,0,0,.15-1.06v-6.29a2,2,0,0,0-.2-1.15,1,1,0,0,0-.83-.31h-.37v-.27H90a8.43,8.43,0,0,1,2.29.23,2.63,2.63,0,0,1,1.25.83,2.19,2.19,0,0,1,.51,1.45,2.27,2.27,0,0,1-.58,1.56,3.31,3.31,0,0,1-1.82.93l2,2.8a5,5,0,0,0,1.18,1.28,3,3,0,0,0,1.3.4Zm9.34-.57a3.11,3.11,0,0,1-2.21.8,4,4,0,0,1-.79-.07,7.4,7.4,0,0,1-.93-.26,4.25,4.25,0,0,0-.88-.23.4.4,0,0,0-.29.11.82.82,0,0,0-.15.45H100v-3.34h.27a4.66,4.66,0,0,0,.5,1.57,2.42,2.42,0,0,0,1,.86,3,3,0,0,0,1.42.35,2,2,0,0,0,1.42-.48,1.45,1.45,0,0,0,.52-1.12,1.49,1.49,0,0,0-.19-.72,2.21,2.21,0,0,0-.62-.69,16.76,16.76,0,0,0-1.53-.91,16,16,0,0,1-1.78-1.12,3,3,0,0,1-.8-.92,2.28,2.28,0,0,1-.27-1.11,2.41,2.41,0,0,1,.8-1.8,2.86,2.86,0,0,1,2-.76,4.18,4.18,0,0,1,1.65.38,1.68,1.68,0,0,0,.56.18.45.45,0,0,0,.31-.11,1,1,0,0,0,.19-.45h.27v3.37h-.27a4.38,4.38,0,0,0-.46-1.55,2.48,2.48,0,0,0-1-.91,2.66,2.66,0,0,0-1.27-.34,1.78,1.78,0,0,0-1.24.46,1.37,1.37,0,0,0-.49,1,1.19,1.19,0,0,0,.31.81,7.93,7.93,0,0,0,2.12,1.44,14.71,14.71,0,0,1,1.86,1.12,2.63,2.63,0,0,1,.77.93,2.39,2.39,0,0,1,.27,1.11A2.51,2.51,0,0,1,105.48,126.73Zm-.54-17a4.68,4.68,0,0,1-6.77,0,5.14,5.14,0,0,1-1.37-3.7,5,5,0,0,1,1.58-3.79,4.67,4.67,0,0,1,3.29-1.27,4.4,4.4,0,0,1,3.28,1.44,5,5,0,0,1,1.39,3.6A5.07,5.07,0,0,1,104.94,109.77Zm17-8.23h-.34a1,1,0,0,0-.89.37,2.33,2.33,0,0,0-.15,1v6.37a1.88,1.88,0,0,0,.2,1.12,1,1,0,0,0,.84.3H122V111h-4.14v-.27h.34a1,1,0,0,0,.88-.37,2.29,2.29,0,0,0,.16-1v-6.51l-3.76,8.2h-.24l-3.76-8.2v6.51a2,2,0,0,0,.19,1.12,1.08,1.08,0,0,0,.84.3h.35V111h-3.4v-.27h.35a1,1,0,0,0,.88-.37,2.33,2.33,0,0,0,.15-1V103a2.15,2.15,0,0,0-.14-.93.79.79,0,0,0-.37-.35,2.05,2.05,0,0,0-.87-.14v-.27h2.76l3.54,7.63,3.48-7.63H122Zm5.9-80.68a16.68,16.68,0,0,1-3,9.64V75.36a16.64,16.64,0,0,1,3,9.64v1.6H99.53V85a16.7,16.7,0,0,1,3-9.64V30.5a16.75,16.75,0,0,1-3-9.64V19.25h28.33Z"/><polygon class="cls-1" points="71.65 107.22 75 107.22 73.35 103.28 71.65 107.22"/><path class="cls-1" d="M101.53,101.58a2.59,2.59,0,0,0-2.1,1,5.49,5.49,0,0,0-1,3.54,5.79,5.79,0,0,0,1,3.67,2.52,2.52,0,0,0,2.07,1,2.82,2.82,0,0,0,2.26-1.07,5.21,5.21,0,0,0,.9-3.38,5.87,5.87,0,0,0-1-3.73A2.64,2.64,0,0,0,101.53,101.58Z"/><path class="cls-1" d="M92.43,120.16a2,2,0,0,0-.57-1.48,2.06,2.06,0,0,0-1.52-.57,6.28,6.28,0,0,0-1.12.13v4.06h.4a3.17,3.17,0,0,0,2.1-.6A1.93,1.93,0,0,0,92.43,120.16Z"/><path class="cls-2" d="M104.94,109.77a4.68,4.68,0,0,1-6.77,0,5.14,5.14,0,0,1-1.37-3.7,5,5,0,0,1,1.58-3.79,4.67,4.67,0,0,1,3.29-1.27,4.4,4.4,0,0,1,3.28,1.44,5,5,0,0,1,1.39,3.6A5.07,5.07,0,0,1,104.94,109.77Z"/><path class="cls-2" d="M86.44,111H82.28v-.27h.35a1.07,1.07,0,0,0,.88-.35,2.25,2.25,0,0,0,.17-1.11V103a3.48,3.48,0,0,0-.09-1,.72.72,0,0,0-.3-.3,1.41,1.41,0,0,0-.66-.17h-.35v-.27h4.16v.27h-.33a1.4,1.4,0,0,0-.66.16.66.66,0,0,0-.31.35,3.67,3.67,0,0,0-.08,1v3c.09-.09.42-.4,1-.91a22.27,22.27,0,0,0,2.58-2.61,1,1,0,0,0,.2-.5.35.35,0,0,0-.16-.29.76.76,0,0,0-.51-.13h-.22v-.27h3.58v.27a1.7,1.7,0,0,0-.57.09,2.71,2.71,0,0,0-.64.3,6.82,6.82,0,0,0-.92.73l-1.46,1.47-1.48,1.48L90,109.18a6.46,6.46,0,0,0,1.51,1.21,3.29,3.29,0,0,0,1.25.36V111H88.15v-.27a1,1,0,0,0,.6-.14.38.38,0,0,0,.19-.31.62.62,0,0,0-.07-.31,3.24,3.24,0,0,0-.45-.51l-3.36-3.33v3.14a3.34,3.34,0,0,0,.09,1,.68.68,0,0,0,.3.31,1.41,1.41,0,0,0,.66.17h.33Z"/><path class="cls-1" d="M101.53,101.58a2.59,2.59,0,0,0-2.1,1,5.49,5.49,0,0,0-1,3.54,5.79,5.79,0,0,0,1,3.67,2.52,2.52,0,0,0,2.07,1,2.82,2.82,0,0,0,2.26-1.07,5.21,5.21,0,0,0,.9-3.38,5.87,5.87,0,0,0-1-3.73A2.64,2.64,0,0,0,101.53,101.58Z"/><polygon class="cls-1" points="71.65 107.22 75 107.22 73.35 103.28 71.65 107.22"/><path class="cls-1" d="M92.43,120.16a2,2,0,0,0-.57-1.48,2.06,2.06,0,0,0-1.52-.57,6.28,6.28,0,0,0-1.12.13v4.06h.4a3.17,3.17,0,0,0,2.1-.6A1.93,1.93,0,0,0,92.43,120.16Z"/><path class="cls-2" d="M41.35,101.54H41a1.33,1.33,0,0,0-.65.16.64.64,0,0,0-.32.35,3.82,3.82,0,0,0-.08,1v6.28a3.34,3.34,0,0,0,.09,1,.68.68,0,0,0,.3.31,1.41,1.41,0,0,0,.66.17h.34V111H37.19v-.27h.34a1,1,0,0,0,.87-.35,2.1,2.1,0,0,0,.18-1.11v-3H34.05v3a3.23,3.23,0,0,0,.1,1,.68.68,0,0,0,.3.31,1.37,1.37,0,0,0,.65.17h.36V111H31.28v-.27h.35a1,1,0,0,0,.87-.35,2.13,2.13,0,0,0,.17-1.11V103a3.43,3.43,0,0,0-.09-1,.66.66,0,0,0-.29-.31,1.41,1.41,0,0,0-.66-.17h-.35v-.27h4.18v.27H35.1a1.36,1.36,0,0,0-.65.16.66.66,0,0,0-.31.35,3.27,3.27,0,0,0-.09,1v2.78h4.53V103a3.43,3.43,0,0,0-.09-1,.68.68,0,0,0-.3-.31,1.41,1.41,0,0,0-.66-.17h-.34v-.27h4.16Z"/><path class="cls-2" d="M45,110.75h.34a1.06,1.06,0,0,0,.88-.35,2.25,2.25,0,0,0,.17-1.11V103a3.34,3.34,0,0,0-.09-1,.68.68,0,0,0-.3-.31,1.41,1.41,0,0,0-.66-.17H45v-.27h4.17v.27h-.35a1,1,0,0,0-.87.35,2.1,2.1,0,0,0-.18,1.11v6.29a3.34,3.34,0,0,0,.09,1,.68.68,0,0,0,.3.31,1.41,1.41,0,0,0,.66.17h.35V111H45Z"/><path class="cls-2" d="M57.59,117.83h-.37a1,1,0,0,0-.88.48,2.19,2.19,0,0,0-.15,1v4a7.11,7.11,0,0,1-.29,2.27A2.91,2.91,0,0,1,54.75,127a4.09,4.09,0,0,1-2.31.57A4.39,4.39,0,0,1,50,127a3,3,0,0,1-1.17-1.49,8.32,8.32,0,0,1-.23-2.4v-3.8a2,2,0,0,0-.24-1.18,1,1,0,0,0-.81-.28H47.2v-.27h4.21v.27H51a1,1,0,0,0-.86.38,2.12,2.12,0,0,0-.18,1.08v4.24a9.35,9.35,0,0,0,.11,1.3,2.88,2.88,0,0,0,.37,1.15,2.19,2.19,0,0,0,.79.67,2.67,2.67,0,0,0,1.26.27,3.44,3.44,0,0,0,1.71-.42,2.17,2.17,0,0,0,1-1.07,6,6,0,0,0,.28-2.2v-3.94a2.1,2.1,0,0,0-.2-1.15,1.06,1.06,0,0,0-.83-.31h-.37v-.27h3.45Z"/><path class="cls-2" d="M58.46,111l-3.76-8.2v6.51a2,2,0,0,0,.19,1.12,1.08,1.08,0,0,0,.84.3h.35V111H52.69v-.27H53a1,1,0,0,0,.88-.37,2.29,2.29,0,0,0,.16-1V103a2.12,2.12,0,0,0-.15-.93.75.75,0,0,0-.37-.35,2,2,0,0,0-.86-.14v-.27h2.76L59,108.9l3.48-7.63h2.76v.27h-.34a1,1,0,0,0-.88.37,2.16,2.16,0,0,0-.16,1v6.37a2,2,0,0,0,.2,1.12,1.08,1.08,0,0,0,.84.3h.34V111H61.08v-.27h.34a1,1,0,0,0,.88-.37,2.16,2.16,0,0,0,.16-1v-6.51L58.7,111Z"/><path class="cls-2" d="M71.14,117.83a1.56,1.56,0,0,0-.79.33,2.86,2.86,0,0,0-.67,1.08l-3.4,8.29H66l-3.65-8.4a4.55,4.55,0,0,0-.39-.79,1.24,1.24,0,0,0-.44-.35,2.07,2.07,0,0,0-.71-.16v-.27h4v.27a1.82,1.82,0,0,0-.88.23.53.53,0,0,0-.2.42,3.26,3.26,0,0,0,.33,1.12l2.48,5.71,2.3-5.64a3.66,3.66,0,0,0,.34-1.15.55.55,0,0,0-.21-.4,1.31,1.31,0,0,0-.7-.27l-.13,0v-.27h3Z"/><path class="cls-2" d="M82.07,127.3H74.56V127h.35a1.37,1.37,0,0,0,.65-.17.58.58,0,0,0,.31-.34,3.22,3.22,0,0,0,.08-.94v-6.33a2.21,2.21,0,0,0-.18-1.15,1.11,1.11,0,0,0-.86-.28h-.35v-.27h7.51l.11,2.14H81.9a3.08,3.08,0,0,0-.34-1.06,1.14,1.14,0,0,0-.54-.44,3.28,3.28,0,0,0-1-.11H77.33v3.85h2.15a1.74,1.74,0,0,0,1.11-.25,1.6,1.6,0,0,0,.42-1.16h.26v3.39H81a3.55,3.55,0,0,0-.21-.91.86.86,0,0,0-.42-.4,2.28,2.28,0,0,0-.9-.14H77.33v3.21a2.93,2.93,0,0,0,.06.79.47.47,0,0,0,.2.22,1.19,1.19,0,0,0,.55.08h1.65a4.84,4.84,0,0,0,1.2-.11,1.88,1.88,0,0,0,.72-.45,5.5,5.5,0,0,0,.91-1.35h.29Z"/><path class="cls-2" d="M105.48,126.73a3.11,3.11,0,0,1-2.21.8,4,4,0,0,1-.79-.07,7.4,7.4,0,0,1-.93-.26,4.25,4.25,0,0,0-.88-.23.4.4,0,0,0-.29.11.82.82,0,0,0-.15.45H100v-3.34h.27a4.66,4.66,0,0,0,.5,1.57,2.42,2.42,0,0,0,1,.86,3,3,0,0,0,1.42.35,2,2,0,0,0,1.42-.48,1.45,1.45,0,0,0,.52-1.12,1.49,1.49,0,0,0-.19-.72,2.21,2.21,0,0,0-.62-.69,16.76,16.76,0,0,0-1.53-.91,16,16,0,0,1-1.78-1.12,3,3,0,0,1-.8-.92,2.28,2.28,0,0,1-.27-1.11,2.41,2.41,0,0,1,.8-1.8,2.86,2.86,0,0,1,2-.76,4.18,4.18,0,0,1,1.65.38,1.68,1.68,0,0,0,.56.18.45.45,0,0,0,.31-.11,1,1,0,0,0,.19-.45h.27v3.37h-.27a4.38,4.38,0,0,0-.46-1.55,2.48,2.48,0,0,0-1-.91,2.66,2.66,0,0,0-1.27-.34,1.78,1.78,0,0,0-1.24.46,1.37,1.37,0,0,0-.49,1,1.19,1.19,0,0,0,.31.81,7.93,7.93,0,0,0,2.12,1.44,14.71,14.71,0,0,1,1.86,1.12,2.63,2.63,0,0,1,.77.93,2.39,2.39,0,0,1,.27,1.11A2.51,2.51,0,0,1,105.48,126.73Z"/><path class="cls-2" d="M122,101.54h-.34a1,1,0,0,0-.89.37,2.33,2.33,0,0,0-.15,1v6.37a1.88,1.88,0,0,0,.2,1.12,1,1,0,0,0,.84.3H122V111h-4.14v-.27h.34a1,1,0,0,0,.88-.37,2.29,2.29,0,0,0,.16-1v-6.51l-3.76,8.2h-.24l-3.76-8.2v6.51a2,2,0,0,0,.19,1.12,1.08,1.08,0,0,0,.84.3h.35V111h-3.4v-.27h.35a1,1,0,0,0,.88-.37,2.33,2.33,0,0,0,.15-1V103a2.15,2.15,0,0,0-.14-.93.79.79,0,0,0-.37-.35,2.05,2.05,0,0,0-.87-.14v-.27h2.76l3.54,7.63,3.48-7.63H122Z"/><path class="cls-1" d="M101.53,101.58a2.59,2.59,0,0,0-2.1,1,5.49,5.49,0,0,0-1,3.54,5.79,5.79,0,0,0,1,3.67,2.52,2.52,0,0,0,2.07,1,2.82,2.82,0,0,0,2.26-1.07,5.21,5.21,0,0,0,.9-3.38,5.87,5.87,0,0,0-1-3.73A2.64,2.64,0,0,0,101.53,101.58Z"/></g></g></svg>